<svg width="182" height="182" viewBox="0 0 182 182" fill="none" xmlns="http://www.w3.org/2000/svg">
<path d="M95.1705 43.9091L94.5795 110.318H86.5795L85.9886 43.9091H95.1705ZM90.5795 137.682C88.7917 137.682 87.2462 137.045 85.9432 135.773C84.6705 134.47 84.0341 132.924 84.0341 131.136C84.0341 129.318 84.6705 127.773 85.9432 126.5C87.2462 125.227 88.7917 124.591 90.5795 124.591C92.3674 124.591 93.8977 125.227 95.1705 126.5C96.4735 127.773 97.125 129.318 97.125 131.136C97.125 132.318 96.822 133.409 96.2159 134.409C95.6402 135.409 94.8523 136.212 93.8523 136.818C92.8826 137.394 91.7917 137.682 90.5795 137.682Z" fill="#FFFDF7"/>
<circle cx="91" cy="91" r="87" stroke="white" stroke-width="8"/>
</svg>
