<svg width="345" height="176" viewBox="0 0 345 176" fill="none" xmlns="http://www.w3.org/2000/svg">
<path d="M33.9362 18.9431L59.3887 0H41.7417L31.9001 18.9431H33.9362ZM0 27.0115V149.615H72.9635V148.563H21.3802V87.5245H65.837V86.4719H21.3802V28.0641H72.9635V27.0115H0Z" fill="black"/>
<path d="M106.818 27.0107H84.4199L134.306 149.614H142.112L185.211 27.0107H182.496L147.881 128.391H147.202L144.148 121.375L106.818 27.0107Z" fill="black"/>
<path d="M209.444 27.0107V149.614H231.164V27.0107H209.444Z" fill="black"/>
<path d="M324.298 132.778C324.298 142.775 311.742 149.44 293.077 149.44C283.235 149.44 271.357 147.511 258.461 143.827L257.443 144.529C270.678 148.739 284.593 151.019 298.167 151.019C325.317 151.019 345 141.723 345 128.743C345 124.007 342.624 119.096 337.873 113.835L294.095 67.1782C286.289 59.1098 282.217 51.3922 282.217 45.0781C282.217 34.7294 293.077 27.3627 308.348 27.3627C317.85 27.3627 329.389 30.5198 338.551 35.4311L339.909 34.7294C329.05 28.9412 315.475 25.6084 302.24 25.6084C278.484 25.6084 261.177 35.782 261.177 49.6386C261.177 55.6019 264.57 62.0918 271.018 68.9319L314.118 114.01C320.905 121.201 324.298 127.515 324.298 132.778Z" fill="black"/>
<path d="M63.4851 160.307H51.9426L34.6282 172.936H34.2891L32.5914 172.061L11.3733 160.307H0V175.579H1.01873V160.984H1.35787L28.3479 175.579H32.2516L52.2817 160.984H52.6215V175.579H63.4851V160.307Z" fill="black"/>
<path d="M80.3984 172.084C80.3984 174.247 90.753 175.754 105.86 175.754C121.307 175.754 131.831 174.247 131.831 172.084V163.715C131.831 161.596 121.477 160.132 106.2 160.132C91.0921 160.132 80.3984 161.618 80.3984 163.715V172.084ZM91.262 162.863C91.262 161.246 97.0333 160.263 106.2 160.263C115.536 160.263 120.968 161.203 120.968 162.863V173.023C120.968 174.684 115.536 175.624 106.03 175.624C96.6941 175.624 91.262 174.684 91.262 173.023V162.863Z" fill="black"/>
<path d="M149.413 175.579H171.48C186.418 175.579 195.754 174.203 195.754 172.149V163.759C195.754 161.618 186.588 160.307 171.141 160.307H149.413V175.579ZM158.919 160.437H169.952C180.817 160.437 186.248 161.29 186.248 162.95V172.957C186.248 174.596 180.817 175.448 170.462 175.448H158.919V160.437Z" fill="black"/>
<path d="M211.39 160.307V175.579H247.886V175.448H222.084V167.845H244.321V167.714H222.084V160.437H247.886V160.307H211.39Z" fill="black"/>
<path d="M262.111 160.307V175.579H297.249V175.448H272.976V160.307H262.111Z" fill="black"/>
<path d="M334.646 173.482C334.646 174.727 328.365 175.558 319.029 175.558C314.107 175.558 308.165 175.318 301.715 174.859L301.206 174.946C307.826 175.471 314.786 175.754 321.575 175.754C335.155 175.754 345 174.596 345 172.979C345 172.39 343.812 171.778 341.436 171.122L319.538 165.31C315.634 164.305 313.597 163.344 313.597 162.557C313.597 161.268 319.029 160.351 326.668 160.351C331.42 160.351 337.192 160.744 341.775 161.356L342.454 161.268C337.022 160.547 330.232 160.132 323.612 160.132C311.73 160.132 303.073 161.399 303.073 163.126C303.073 163.868 304.77 164.677 307.996 165.529L329.553 171.144C332.948 172.04 334.646 172.827 334.646 173.482Z" fill="black"/>
</svg>
