<svg width="274" height="266" viewBox="0 0 274 266" fill="none" xmlns="http://www.w3.org/2000/svg">
<path d="M67.5 215.187C56.25 215.187 46.6406 211.958 38.6719 205.5C30.7552 198.99 24.6615 189.589 20.3906 177.297C16.1719 165.005 14.0625 150.24 14.0625 133C14.0625 115.812 16.1719 101.099 20.3906 88.8594C24.6615 76.5677 30.7813 67.1667 38.75 60.6562C46.7708 54.0937 56.3542 50.8125 67.5 50.8125C78.6458 50.8125 88.2031 54.0937 96.1719 60.6562C104.193 67.1667 110.313 76.5677 114.531 88.8594C118.802 101.099 120.938 115.812 120.938 133C120.938 150.24 118.802 165.005 114.531 177.297C110.313 189.589 104.219 198.99 96.25 205.5C88.3333 211.958 78.75 215.187 67.5 215.187ZM67.5 202.062C79.8438 202.062 89.4792 196.047 96.4063 184.016C103.333 171.932 106.797 154.927 106.797 133C106.797 118.417 105.208 105.969 102.031 95.6562C98.9063 85.2917 94.401 77.375 88.5156 71.9062C82.6823 66.4375 75.6771 63.7031 67.5 63.7031C55.2604 63.7031 45.651 69.7969 38.6719 81.9844C31.6927 94.1198 28.2031 111.125 28.2031 133C28.2031 147.583 29.7656 160.031 32.8906 170.344C36.0677 180.656 40.5729 188.521 46.4062 193.938C52.2917 199.354 59.3229 202.062 67.5 202.062ZM204.688 215.187C194.844 215.187 186.042 213.417 178.281 209.875C170.521 206.281 164.375 201.307 159.844 194.953C155.313 188.599 152.917 181.281 152.656 173H167.422C167.682 178.833 169.479 183.937 172.813 188.312C176.146 192.635 180.573 196.021 186.094 198.469C191.615 200.865 197.76 202.062 204.531 202.062C211.927 202.062 218.438 200.682 224.062 197.922C229.74 195.161 234.167 191.385 237.344 186.594C240.573 181.75 242.188 176.281 242.188 170.187C242.188 163.729 240.547 158.026 237.266 153.078C233.984 148.13 229.271 144.276 223.125 141.516C217.031 138.755 209.74 137.375 201.25 137.375H191.875V124.25H201.25C208.177 124.25 214.297 123 219.609 120.5C224.974 117.948 229.193 114.38 232.266 109.797C235.339 105.214 236.875 99.8229 236.875 93.625C236.875 87.7396 235.547 82.5573 232.891 78.0781C230.234 73.599 226.484 70.0833 221.641 67.5312C216.849 64.9792 211.25 63.7031 204.844 63.7031C198.646 63.7031 192.969 64.901 187.813 67.2969C182.656 69.6927 178.49 73.0781 175.312 77.4531C172.188 81.8281 170.521 87.0104 170.313 93H156.172C156.38 84.6667 158.672 77.349 163.047 71.0469C167.474 64.6927 173.333 59.7448 180.625 56.2031C187.969 52.6094 196.094 50.8125 205 50.8125C214.427 50.8125 222.578 52.7396 229.453 56.5938C236.328 60.4479 241.641 65.5781 245.391 71.9844C249.193 78.3385 251.094 85.3437 251.094 93C251.094 102.115 248.62 109.927 243.672 116.437C238.724 122.896 232.057 127.375 223.672 129.875V130.891C233.88 132.922 241.901 137.453 247.734 144.484C253.62 151.464 256.563 160.031 256.563 170.187C256.563 178.729 254.323 186.411 249.844 193.234C245.365 200.005 239.219 205.37 231.406 209.328C223.646 213.234 214.74 215.187 204.688 215.187Z" fill="#FFFDF7"/>
<g filter="url(#filter0_d_317_2)">
<path d="M113.5 155L90.5503 115.25H136.45L113.5 155Z" fill="#FFFDF7"/>
</g>
<defs>
<filter id="filter0_d_317_2" x="85.5503" y="114.25" width="55.8994" height="49.75" filterUnits="userSpaceOnUse" color-interpolation-filters="sRGB">
<feFlood flood-opacity="0" result="BackgroundImageFix"/>
<feColorMatrix in="SourceAlpha" type="matrix" values="0 0 0 0 0 0 0 0 0 0 0 0 0 0 0 0 0 0 127 0" result="hardAlpha"/>
<feOffset dy="4"/>
<feGaussianBlur stdDeviation="2.5"/>
<feComposite in2="hardAlpha" operator="out"/>
<feColorMatrix type="matrix" values="0 0 0 0 0 0 0 0 0 0 0 0 0 0 0 0 0 0 0.3 0"/>
<feBlend mode="normal" in2="BackgroundImageFix" result="effect1_dropShadow_317_2"/>
<feBlend mode="normal" in="SourceGraphic" in2="effect1_dropShadow_317_2" result="shape"/>
</filter>
</defs>
</svg>
