<svg width="535" height="273" viewBox="0 0 535 273" fill="none" xmlns="http://www.w3.org/2000/svg">
<path d="M52.6259 29.3756L92.0957 0H64.73L49.4684 29.3756H52.6259ZM0 41.8875V232.012H113.146V230.381H33.1549V135.727H102.095V134.094H33.1549V43.5198H113.146V41.8875H0Z" fill="white"/>
<path d="M165.645 41.8872H130.913L208.273 232.012H220.377L287.212 41.8872H283.002L229.323 199.101H228.271L223.534 188.221L165.645 41.8872Z" fill="white"/>
<path d="M324.792 41.8872V232.012H358.472V41.8872H324.792Z" fill="white"/>
<path d="M502.898 205.901C502.898 221.405 483.426 231.741 454.481 231.741C439.219 231.741 420.8 228.749 400.802 223.036L399.224 224.125C419.747 230.653 441.325 234.189 462.375 234.189C504.476 234.189 535 219.773 535 199.645C535 192.301 531.316 184.685 523.948 176.526L456.06 104.174C443.956 91.6625 437.641 79.6946 437.641 69.9031C437.641 53.8551 454.481 42.4314 478.163 42.4314C492.898 42.4314 510.791 47.3271 525 54.9433L527.106 53.8551C510.265 44.8792 489.215 39.7109 468.691 39.7109C431.852 39.7109 405.013 55.4874 405.013 76.9752C405.013 86.2227 410.275 96.2867 420.274 106.894L487.11 176.797C497.635 187.949 502.898 197.741 502.898 205.901Z" fill="white"/>
<path d="M98.4481 248.592H80.5488L53.6989 268.176H53.173L50.5404 266.821L17.6368 248.592H0V272.276H1.57977V249.642H2.10568L43.9599 272.276H50.0134L81.0747 249.642H81.6017V272.276H98.4481V248.592Z" fill="white"/>
<path d="M124.676 266.855C124.676 270.209 140.733 272.547 164.16 272.547C188.114 272.547 204.434 270.209 204.434 266.855V253.878C204.434 250.591 188.377 248.321 164.687 248.321C141.259 248.321 124.676 250.625 124.676 253.878V266.855ZM141.522 252.556C141.522 250.049 150.472 248.524 164.687 248.524C179.164 248.524 187.588 249.981 187.588 252.556V268.312C187.588 270.887 179.164 272.344 164.423 272.344C149.946 272.344 141.522 270.887 141.522 268.312V252.556Z" fill="white"/>
<path d="M231.699 272.276H265.919C289.084 272.276 303.562 270.142 303.562 266.957V253.945C303.562 250.625 289.347 248.592 265.393 248.592H231.699V272.276ZM246.44 248.795H263.55C280.397 248.795 288.82 250.117 288.82 252.692V268.21C288.82 270.751 280.397 272.073 264.34 272.073H246.44V248.795Z" fill="white"/>
<path d="M327.808 248.592V272.276H384.403V272.073H344.392V260.282H378.875V260.079H344.392V248.795H384.403V248.592H327.808Z" fill="white"/>
<path d="M406.463 248.592V272.276H460.952V272.073H423.31V248.592H406.463Z" fill="white"/>
<path d="M518.944 269.023C518.944 270.954 509.204 272.242 494.726 272.242C487.093 272.242 477.88 271.87 467.876 271.158L467.087 271.294C477.353 272.107 488.146 272.547 498.675 272.547C519.733 272.547 535.001 270.751 535.001 268.244C535.001 267.329 533.158 266.381 529.473 265.364L495.516 256.351C489.462 254.792 486.303 253.301 486.303 252.082C486.303 250.082 494.726 248.66 506.572 248.66C513.942 248.66 522.892 249.27 529.999 250.219L531.052 250.082C522.629 248.965 512.1 248.321 501.834 248.321C483.407 248.321 469.983 250.286 469.983 252.963C469.983 254.115 472.615 255.369 477.616 256.69L511.047 265.397C516.311 266.787 518.944 268.007 518.944 269.023Z" fill="white"/>
</svg>
