<svg width="328" height="161" viewBox="0 0 328 161" fill="none" xmlns="http://www.w3.org/2000/svg">
<path d="M32.264 17.2722L56.4623 0H39.6849L30.3282 17.2722H32.264ZM0 24.6289V136.418H69.3682V135.459H20.3267V79.8043H62.5928V78.8445H20.3267V25.5887H69.3682V24.6289H0Z" fill="black"/>
<path d="M101.554 24.6288H80.2598L127.688 136.418H135.109L176.085 24.6288H173.503L140.594 117.067H139.948L137.045 110.67L101.554 24.6288Z" fill="black"/>
<path d="M199.124 24.6288V136.418H219.773V24.6288H199.124Z" fill="black"/>
<path d="M308.319 121.066C308.319 130.182 296.381 136.259 278.635 136.259C269.279 136.259 257.986 134.499 245.726 131.141L244.758 131.781C257.341 135.619 270.57 137.698 283.475 137.698C309.286 137.698 328 129.222 328 117.387C328 113.069 325.742 108.591 321.224 103.793L279.603 61.2525C272.182 53.8957 268.311 46.8589 268.311 41.1017C268.311 31.6658 278.635 24.9489 293.154 24.9489C302.188 24.9489 313.158 27.8275 321.869 32.3057L323.16 31.6658C312.836 26.3882 299.93 23.3494 287.347 23.3494C264.761 23.3494 248.307 32.6256 248.307 45.26C248.307 50.6972 251.533 56.6147 257.664 62.8514L298.639 103.953C305.092 110.51 308.319 116.268 308.319 121.066Z" fill="black"/>
<path d="M60.3569 146.167H49.3831L32.9219 157.682H32.5994L30.9854 156.885L10.8128 146.167H0V160.093H0.968529V146.785H1.29096L26.9511 160.093H30.6624L49.7055 146.785H50.0286V160.093H60.3569V146.167Z" fill="black"/>
<path d="M76.4365 156.905C76.4365 158.878 86.2808 160.252 100.644 160.252C115.329 160.252 125.335 158.878 125.335 156.905V149.275C125.335 147.342 115.491 146.008 100.967 146.008C86.6033 146.008 76.4365 147.363 76.4365 149.275V156.905ZM86.7648 148.498C86.7648 147.024 92.2517 146.127 100.967 146.127C109.842 146.127 115.007 146.984 115.007 148.498V157.762C115.007 159.276 109.842 160.133 100.805 160.133C91.9292 160.133 86.7648 159.276 86.7648 157.762V148.498Z" fill="black"/>
<path d="M142.051 160.093H163.03C177.232 160.093 186.109 158.838 186.109 156.965V149.315C186.109 147.363 177.394 146.167 162.708 146.167H142.051V160.093ZM151.088 146.287H161.578C171.907 146.287 177.071 147.064 177.071 148.578V157.702C177.071 159.197 171.907 159.974 162.062 159.974H151.088V146.287Z" fill="black"/>
<path d="M200.974 146.167V160.093H235.671V159.974H211.141V153.041H232.282V152.921H211.141V146.287H235.671V146.167H200.974Z" fill="black"/>
<path d="M249.195 146.167V160.093H282.602V159.974H259.524V146.167H249.195Z" fill="black"/>
<path d="M318.156 158.18C318.156 159.316 312.184 160.073 303.308 160.073C298.629 160.073 292.98 159.854 286.847 159.436L286.363 159.515C292.657 159.993 299.274 160.252 305.729 160.252C318.64 160.252 328 159.196 328 157.722C328 157.184 326.871 156.626 324.611 156.029L303.792 150.729C300.081 149.813 298.144 148.936 298.144 148.219C298.144 147.043 303.308 146.207 310.571 146.207C315.089 146.207 320.577 146.565 324.934 147.123L325.579 147.043C320.415 146.386 313.96 146.008 307.666 146.008C296.369 146.008 288.139 147.163 288.139 148.737C288.139 149.414 289.752 150.152 292.819 150.928L313.314 156.048C316.542 156.866 318.156 157.582 318.156 158.18Z" fill="black"/>
</svg>
