<svg width="139" height="71" viewBox="0 0 139 71" fill="none" xmlns="http://www.w3.org/2000/svg">
<g style="mix-blend-mode:soft-light">
<path d="M13.6728 7.63209L23.9275 0H16.8176L12.8524 7.63209H13.6728ZM0 10.8828V60.2794H29.3967V59.8555H8.614V35.2632H26.5254V34.8391H8.614V11.3069H29.3967V10.8828H0Z" fill="white" fill-opacity="0.4"/>
<path d="M43.0366 10.8827H34.0127L54.1117 60.2792H57.2565L74.6211 10.8827H73.5272L59.5809 51.7284H59.3073L58.0768 48.9018L43.0366 10.8827Z" fill="white" fill-opacity="0.4"/>
<path d="M84.3848 10.8827V60.2792H93.1354V10.8827H84.3848Z" fill="white" fill-opacity="0.4"/>
<path d="M130.659 53.4955C130.659 57.5236 125.6 60.2089 118.08 60.2089C114.115 60.2089 109.329 59.4315 104.134 57.9474L103.724 58.2301C109.056 59.9262 114.662 60.8449 120.131 60.8449C131.069 60.8449 139 57.0995 139 51.87C139 49.962 138.043 47.9833 136.128 45.8634L118.49 27.0658C115.346 23.815 113.705 20.7056 113.705 18.1617C113.705 13.9923 118.08 11.0242 124.233 11.0242C128.061 11.0242 132.71 12.2962 136.402 14.275L136.949 13.9923C132.574 11.6602 127.104 10.3174 121.772 10.3174C112.201 10.3174 105.228 14.4163 105.228 19.9991C105.228 22.4017 106.595 25.0164 109.193 27.7723L126.557 45.934C129.292 48.8314 130.659 51.3754 130.659 53.4955Z" fill="white" fill-opacity="0.4"/>
<path d="M25.5779 64.5871H20.9275L13.9516 69.6753H13.8149L13.1309 69.3231L4.58224 64.5871H0V70.7403H0.410441V64.8599H0.547078L11.4213 70.7403H12.994L21.0641 64.8599H21.201V70.7403H25.5779V64.5871Z" fill="white" fill-opacity="0.4"/>
<path d="M32.3916 69.3323C32.3916 70.2038 36.5634 70.8112 42.65 70.8112C48.8735 70.8112 53.1137 70.2038 53.1137 69.3323V65.9607C53.1137 65.1067 48.9419 64.5169 42.7869 64.5169C36.7 64.5169 32.3916 65.1157 32.3916 65.9607V69.3323ZM36.7685 65.6174C36.7685 64.9659 39.0937 64.5696 42.7869 64.5696C46.5482 64.5696 48.7368 64.9483 48.7368 65.6174V69.7107C48.7368 70.3798 46.5482 70.7585 42.7184 70.7585C38.9571 70.7585 36.7685 70.3798 36.7685 69.7107V65.6174Z" fill="white" fill-opacity="0.4"/>
<path d="M60.1982 70.7403H69.0889C75.1073 70.7403 78.8689 70.1859 78.8689 69.3585V65.9779C78.8689 65.1153 75.1758 64.5871 68.9523 64.5871H60.1982V70.7403ZM64.0281 64.6398H68.4734C72.8506 64.6398 75.0389 64.9832 75.0389 65.6522V69.6839C75.0389 70.3443 72.8506 70.6876 68.6788 70.6876H64.0281V64.6398Z" fill="white" fill-opacity="0.4"/>
<path d="M85.1694 64.5871V70.7403H99.8734V70.6876H89.4781V67.6241H98.4373V67.5714H89.4781V64.6398H99.8734V64.5871H85.1694Z" fill="white" fill-opacity="0.4"/>
<path d="M105.604 64.5871V70.7403H119.76V70.6876H109.981V64.5871H105.604Z" fill="white" fill-opacity="0.4"/>
<path d="M134.828 69.8956C134.828 70.3973 132.297 70.732 128.536 70.732C126.553 70.732 124.159 70.6352 121.56 70.4503L121.355 70.4855C124.022 70.6968 126.826 70.8112 129.562 70.8112C135.033 70.8112 139 70.3446 139 69.6932C139 69.4556 138.521 69.209 137.564 68.9449L128.741 66.6032C127.168 66.1983 126.347 65.8109 126.347 65.4941C126.347 64.9746 128.536 64.605 131.614 64.605C133.528 64.605 135.854 64.7634 137.7 65.01L137.974 64.9746C135.785 64.6842 133.05 64.5169 130.383 64.5169C125.595 64.5169 122.107 65.0275 122.107 65.723C122.107 66.0223 122.791 66.348 124.091 66.6913L132.776 68.9536C134.144 69.3147 134.828 69.6315 134.828 69.8956Z" fill="white" fill-opacity="0.4"/>
</g>
</svg>
