<svg width="471" height="164" viewBox="0 0 471 164" fill="none" xmlns="http://www.w3.org/2000/svg">
<path d="M0 30.6945C0 20.7231 0 15.7375 1.73798 11.8453C3.74701 7.34619 7.34619 3.74701 11.8453 1.73798C15.7375 0 20.7231 0 30.6945 0V0C34.5823 0 36.5262 0 38.3853 0.355047C40.5406 0.766665 42.6134 1.53016 44.5208 2.61492C46.166 3.5506 47.6455 4.81152 50.6045 7.33336L59.4968 14.9121C72.1296 25.6786 78.4459 31.0619 85.9315 30.9832C93.4172 30.9046 99.619 25.3898 112.023 14.3602L116.804 10.1084C122.424 5.11107 125.234 2.61241 128.669 1.3062C132.104 0 135.864 0 143.384 0H235.5H431C449.856 0 459.284 0 465.142 5.85786C471 11.7157 471 21.1438 471 40V124C471 142.856 471 152.284 465.142 158.142C459.284 164 449.856 164 431 164H40C21.1438 164 11.7157 164 5.85786 158.142C0 152.284 0 142.856 0 124V30.6945Z" fill="#FFFDF7"/>
</svg>
