<svg width="154" height="78" viewBox="0 0 154 78" fill="none" xmlns="http://www.w3.org/2000/svg">
<g style="mix-blend-mode:soft-light">
<path d="M15.0501 8.4009L26.3378 0H18.5116L14.1471 8.4009H15.0501ZM0 11.9791V66.3515H32.3579V65.885H9.48172V38.8154H29.1974V38.3486H9.48172V12.4459H32.3579V11.9791H0Z" fill="white" fill-opacity="0.3"/>
<path d="M47.3714 11.979H37.4385L59.5621 66.3514H63.0237L82.1375 11.979H80.9334L65.5822 56.9393H65.2811L63.9267 53.8279L47.3714 11.979Z" fill="white" fill-opacity="0.3"/>
<path d="M92.8848 11.979V66.3514H102.517V11.979H92.8848Z" fill="white" fill-opacity="0.3"/>
<path d="M143.82 58.8844C143.82 63.3183 138.252 66.2741 129.974 66.2741C125.609 66.2741 120.342 65.4185 114.623 63.7848L114.171 64.096C120.041 65.9629 126.212 66.9741 132.232 66.9741C144.272 66.9741 153.001 62.8515 153.001 57.0952C153.001 54.9951 151.948 52.817 149.84 50.4835L130.426 29.7924C126.964 26.2142 125.158 22.7916 125.158 19.9914C125.158 15.4019 129.974 12.1349 136.747 12.1349C140.961 12.1349 146.078 13.535 150.141 15.7131L150.743 15.4019C145.927 12.835 139.907 11.3569 134.038 11.3569C123.502 11.3569 115.827 15.8687 115.827 22.0139C115.827 24.6585 117.332 27.5366 120.192 30.5701L139.305 50.5612C142.315 53.7506 143.82 56.5508 143.82 58.8844Z" fill="white" fill-opacity="0.3"/>
<path d="M28.1544 71.0933H23.0356L15.3569 76.694H15.2065L14.4537 76.3063L5.04382 71.0933H0V77.8663H0.451786V71.3935H0.602187L12.5718 77.8663H14.303L23.186 71.3935H23.3367V77.8663H28.1544V71.0933Z" fill="white" fill-opacity="0.3"/>
<path d="M35.6553 76.3161C35.6553 77.2754 40.2473 77.944 46.947 77.944C53.7974 77.944 58.4648 77.2754 58.4648 76.3161V72.6048C58.4648 71.6649 53.8728 71.0156 47.0977 71.0156C40.3977 71.0156 35.6553 71.6747 35.6553 72.6048V76.3161ZM40.4731 72.2269C40.4731 71.5098 43.0325 71.0736 47.0977 71.0736C51.238 71.0736 53.647 71.4905 53.647 72.2269V76.7327C53.647 77.4691 51.238 77.8859 47.0224 77.8859C42.8821 77.8859 40.4731 77.4691 40.4731 76.7327V72.2269Z" fill="white" fill-opacity="0.3"/>
<path d="M66.2617 77.8663H76.048C82.6726 77.8663 86.8132 77.256 86.8132 76.3452V72.6241C86.8132 71.6747 82.748 71.0933 75.8976 71.0933H66.2617V77.8663ZM70.4773 71.1513H75.3705C80.1885 71.1513 82.5973 71.5292 82.5973 72.2656V76.7035C82.5973 77.4304 80.1885 77.8083 75.5965 77.8083H70.4773V71.1513Z" fill="white" fill-opacity="0.3"/>
<path d="M93.7476 71.0933V77.8663H109.933V77.8083H98.4903V74.4362H108.352V74.3782H98.4903V71.1513H109.933V71.0933H93.7476Z" fill="white" fill-opacity="0.3"/>
<path d="M116.241 71.0933V77.8663H131.824V77.8083H121.059V71.0933H116.241Z" fill="white" fill-opacity="0.3"/>
<path d="M148.409 76.9362C148.409 77.4884 145.624 77.8568 141.483 77.8568C139.3 77.8568 136.666 77.7503 133.805 77.5467L133.579 77.5854C136.515 77.8181 139.602 77.944 142.613 77.944C148.635 77.944 153.001 77.4304 153.001 76.7133C153.001 76.4518 152.474 76.1804 151.42 75.8897L141.709 73.3121C139.978 72.8664 139.074 72.44 139.074 72.0913C139.074 71.5194 141.483 71.1126 144.871 71.1126C146.979 71.1126 149.539 71.287 151.571 71.5583L151.872 71.5194C149.463 71.1998 146.452 71.0156 143.516 71.0156C138.246 71.0156 134.407 71.5777 134.407 72.3433C134.407 72.6727 135.16 73.0312 136.59 73.4091L146.151 75.8992C147.656 76.2967 148.409 76.6455 148.409 76.9362Z" fill="white" fill-opacity="0.3"/>
</g>
</svg>
